<?xml version="1.0" encoding="utf-8"?>
<!-- Generator: Adobe Illustrator 19.0.0, SVG Export Plug-In . SVG Version: 6.00 Build 0)  -->
<svg version="1.1" id="Layer_1" xmlns="http://www.w3.org/2000/svg" xmlns:xlink="http://www.w3.org/1999/xlink" x="0px" y="0px"
	 viewBox="0 0 129.09 129.47" style="enable-background:new 0 0 129.09 129.47;" xml:space="preserve">
<style type="text/css">
	.st0{fill:#6C6D6F;}
</style>
<path class="st0" d="M129.09,20.4c0-0.11-0.02-0.21-0.03-0.32c-0.01-0.06-0.01-0.12-0.02-0.18c-0.02-0.1-0.06-0.19-0.09-0.28
	c-0.02-0.06-0.03-0.12-0.06-0.18c-0.04-0.09-0.09-0.18-0.15-0.27c-0.03-0.05-0.05-0.1-0.09-0.15c-0.05-0.08-0.12-0.15-0.18-0.22
	c-0.04-0.05-0.08-0.1-0.13-0.15c-0.06-0.05-0.12-0.1-0.18-0.15c-0.07-0.06-0.13-0.11-0.21-0.16c-0.01-0.01-0.02-0.02-0.03-0.02
	L99.48,0.38C99.08,0.13,98.61,0,98.14,0H28.83c-0.5,0-0.99,0.15-1.41,0.43L1.1,18.36c0,0,0,0,0,0l-0.01,0
	c-0.02,0.02-0.04,0.04-0.07,0.06c-0.11,0.08-0.21,0.16-0.3,0.26c-0.05,0.05-0.09,0.11-0.14,0.17c-0.06,0.07-0.12,0.13-0.17,0.21
	c-0.04,0.06-0.07,0.13-0.11,0.2c-0.04,0.08-0.09,0.15-0.12,0.23c-0.03,0.07-0.04,0.14-0.07,0.21c-0.03,0.08-0.06,0.17-0.07,0.25
	c-0.02,0.11-0.03,0.22-0.03,0.33c0,0.05-0.02,0.1-0.02,0.15v106.54c0,1.38,1.12,2.5,2.5,2.5h124.09c1.38,0,2.5-1.12,2.5-2.5V20.44
	C129.09,20.42,129.09,20.41,129.09,20.4z M29.6,5h31.67v12.94H10.61L29.6,5z M5,124.47V22.94h101.99c1.38,0,2.5-1.12,2.5-2.5
	s-1.12-2.5-2.5-2.5H65.94V5h31.48l26.67,16.81v102.66H5z"/>
</svg>
