<?xml version="1.0" encoding="utf-8"?>
<!-- Generator: Adobe Illustrator 19.0.0, SVG Export Plug-In . SVG Version: 6.00 Build 0)  -->
<svg version="1.1" xmlns="http://www.w3.org/2000/svg" xmlns:xlink="http://www.w3.org/1999/xlink" x="0px" y="0px"
	 viewBox="0 0 66.54 71.96" style="enable-background:new 0 0 66.54 71.96;" xml:space="preserve">
<style type="text/css">
	.st0{fill:#C59D58;}
	.st1{display:none;}
	.st2{display:inline;}
</style>
<g id="udalost">
	<g>
		<g>
			<g>
				<g>
					<path class="st0" d="M41.99,46.5c-0.1,0-0.21-0.02-0.3-0.07L33,41.86l-8.69,4.57c-0.22,0.12-0.48,0.1-0.68-0.05
						c-0.2-0.15-0.3-0.39-0.26-0.63l1.66-9.67l-7.03-6.85c-0.18-0.17-0.24-0.43-0.16-0.66c0.08-0.23,0.28-0.41,0.52-0.44l9.71-1.41
						l4.34-8.8c0.11-0.22,0.33-0.36,0.58-0.36c0.25,0,0.47,0.14,0.58,0.36l4.34,8.8l9.71,1.41c0.24,0.04,0.45,0.21,0.52,0.44
						c0.08,0.23,0.01,0.49-0.16,0.66l-7.03,6.85l1.66,9.67c0.04,0.24-0.06,0.49-0.26,0.63C42.26,46.46,42.13,46.5,41.99,46.5z
						 M33,40.48c0.1,0,0.21,0.02,0.3,0.07l7.83,4.11l-1.49-8.71c-0.04-0.21,0.03-0.42,0.19-0.57l6.33-6.17l-8.75-1.27
						c-0.21-0.03-0.39-0.16-0.49-0.35L33,19.66l-3.91,7.93c-0.09,0.19-0.28,0.32-0.49,0.35l-8.75,1.27l6.33,6.17
						c0.15,0.15,0.22,0.36,0.19,0.57l-1.49,8.71l7.83-4.11C32.8,40.5,32.9,40.48,33,40.48z"/>
				</g>
			</g>
			<g>
				<g>
					<path class="st0" d="M58.71,52.33c-0.14,0-0.28-0.04-0.39-0.13l-5.7-4.34l-6.81,2.24c-0.23,0.08-0.49,0.01-0.67-0.16
						c-0.17-0.18-0.23-0.44-0.15-0.67l2.37-6.77l-4.23-5.79c-0.15-0.2-0.17-0.46-0.05-0.68c0.11-0.22,0.34-0.36,0.59-0.35l7.17,0.16
						l4.19-5.81c0.14-0.2,0.39-0.3,0.63-0.26c0.24,0.04,0.44,0.22,0.51,0.45l2.06,6.86l6.82,2.19c0.23,0.08,0.41,0.28,0.44,0.52
						c0.04,0.24-0.07,0.49-0.27,0.63l-5.89,4.08l0.02,7.17c0,0.25-0.14,0.47-0.36,0.58C58.91,52.3,58.81,52.33,58.71,52.33z
						 M52.73,46.48c0.14,0,0.28,0.04,0.39,0.13l4.93,3.75l-0.02-6.19c0-0.21,0.1-0.41,0.28-0.54l5.09-3.53l-5.9-1.89
						c-0.2-0.07-0.36-0.23-0.42-0.43l-1.78-5.93l-3.62,5.02c-0.12,0.17-0.33,0.28-0.54,0.27l-6.19-0.14l3.66,5
						c0.13,0.17,0.16,0.4,0.09,0.6l-2.04,5.85l5.89-1.93C52.6,46.49,52.66,46.48,52.73,46.48z"/>
				</g>
			</g>
			<g>
				<g>
					<path class="st0" d="M7.3,52.33c-0.1,0-0.2-0.02-0.29-0.07c-0.22-0.11-0.36-0.34-0.36-0.58l0.02-7.17l-5.89-4.08
						c-0.2-0.14-0.31-0.38-0.27-0.63c0.04-0.24,0.21-0.45,0.44-0.52l6.82-2.19l2.06-6.86c0.07-0.24,0.27-0.41,0.51-0.45
						c0.24-0.04,0.49,0.06,0.63,0.26l4.19,5.81l7.17-0.16c0.25,0,0.48,0.13,0.59,0.35c0.11,0.22,0.09,0.48-0.05,0.68l-4.23,5.79
						l2.34,6.68c0.05,0.09,0.07,0.19,0.07,0.3c0,0.36-0.29,0.65-0.65,0.65c0,0,0,0-0.01,0c-0.07,0-0.14-0.01-0.2-0.03l-6.81-2.24
						l-5.7,4.34C7.57,52.28,7.44,52.33,7.3,52.33z M2.6,40.11l5.09,3.53c0.18,0.12,0.28,0.32,0.28,0.54l-0.02,6.19l4.93-3.75
						c0.17-0.13,0.39-0.17,0.6-0.1l5.89,1.93l-2.04-5.85c-0.07-0.2-0.04-0.42,0.09-0.6l3.66-5l-6.19,0.14
						c-0.21,0.01-0.42-0.1-0.54-0.27l-3.62-5.02l-1.78,5.93c-0.06,0.2-0.22,0.37-0.42,0.43L2.6,40.11z"/>
				</g>
			</g>
		</g>
		<g>
			<g>
				<path class="st0" d="M5.58,36.57L5.58,36.57c-0.36,0-0.65-0.29-0.65-0.65c0-9.62,5.12-18.74,13.36-23.8
					c0.31-0.19,0.7-0.09,0.89,0.21c0.19,0.31,0.09,0.7-0.21,0.89c-7.86,4.82-12.74,13.52-12.74,22.7
					C6.23,36.28,5.94,36.57,5.58,36.57z"/>
			</g>
		</g>
		<g>
			<g>
				<path class="st0" d="M21.88,11.62c-0.25,0-0.49-0.14-0.59-0.39c-0.15-0.33,0-0.71,0.33-0.86c6.36-2.82,13.74-3.19,20.26-1.01
					c0.34,0.11,0.52,0.48,0.41,0.82c-0.11,0.34-0.48,0.52-0.82,0.41c-6.21-2.08-13.25-1.72-19.32,0.97
					C22.06,11.6,21.97,11.62,21.88,11.62z"/>
			</g>
		</g>
		<g>
			<g>
				<path class="st0" d="M54.07,19.07c-0.19,0-0.37-0.08-0.5-0.23c-2.5-2.98-5.69-5.44-9.24-7.09c-0.32-0.15-0.46-0.54-0.31-0.86
					c0.15-0.32,0.54-0.46,0.86-0.31c3.72,1.74,7.07,4.31,9.69,7.44c0.23,0.27,0.19,0.68-0.08,0.91
					C54.37,19.02,54.22,19.07,54.07,19.07z"/>
			</g>
		</g>
		<g>
			<g>
				<path class="st0" d="M59.09,28.12c-0.27,0-0.53-0.17-0.62-0.45c-0.73-2.26-1.78-4.42-3.11-6.43c-0.2-0.3-0.12-0.7,0.18-0.9
					c0.3-0.2,0.7-0.12,0.9,0.18c1.4,2.1,2.49,4.37,3.26,6.75c0.11,0.34-0.08,0.71-0.42,0.82C59.23,28.11,59.16,28.12,59.09,28.12z"
					/>
			</g>
		</g>
		<g>
			<g>
				<path class="st0" d="M60.42,36.57c-0.36,0-0.65-0.29-0.65-0.65c0-1.8-0.18-3.6-0.53-5.35c-0.07-0.35,0.16-0.69,0.51-0.76
					c0.35-0.07,0.69,0.16,0.76,0.51c0.37,1.83,0.56,3.72,0.56,5.61C61.07,36.28,60.78,36.57,60.42,36.57z"/>
			</g>
		</g>
		<g>
			<g>
				<path class="st0" d="M33,63.99c-8.77,0-16.88-3.99-22.24-10.95c-0.22-0.28-0.17-0.69,0.12-0.91c0.28-0.22,0.69-0.17,0.91,0.12
					C16.9,58.89,24.63,62.7,33,62.7c8.49,0,16.28-3.89,21.4-10.68c0.22-0.29,0.62-0.34,0.91-0.13c0.29,0.22,0.34,0.62,0.13,0.91
					C50.08,59.91,41.9,63.99,33,63.99z"/>
			</g>
		</g>
	</g>
</g>
<g id="stuzkova" class="st1">
	<g class="st2">
		<g>
			<path class="st0" d="M32.03,48.24c-1.38,0-2.62-0.83-3.41-2.28c-0.65-1.19-2.06-2-3.5-2c-0.48,0-0.94,0.09-1.37,0.26
				c-1.66,0.66-3.32,0.4-4.36-0.66c-0.73-0.75-1.11-1.85-1.08-3.1c0.05-1.86-1.47-3.66-3.34-3.92c-1.52-0.21-2.69-0.99-3.23-2.14
				c-0.54-1.14-0.38-2.54,0.42-3.82c0.98-1.58,0.57-3.89-0.91-5.04c-1.2-0.93-1.83-2.19-1.73-3.45c0.11-1.26,0.94-2.4,2.28-3.12
				c1.65-0.89,2.45-3.09,1.75-4.82c-0.57-1.4-0.5-2.75,0.21-3.8c0.72-1.06,2.01-1.66,3.57-1.61l0.1,0c1.87,0,3.59-1.48,3.85-3.31
				c0.3-2.14,1.72-3.53,3.61-3.53c0.78,0,1.6,0.25,2.38,0.73c0.57,0.35,1.26,0.54,1.98,0.54c1.24,0,2.41-0.54,3.12-1.44
				C33.25,0.61,34.38,0,35.56,0c1.38,0,2.62,0.83,3.41,2.28c0.65,1.19,2.06,2,3.51,2h0c0.48,0,0.94-0.09,1.36-0.26
				c1.66-0.66,3.33-0.4,4.36,0.66c0.73,0.75,1.11,1.85,1.08,3.1c-0.05,1.86,1.47,3.66,3.33,3.92c1.52,0.21,2.69,0.99,3.23,2.14
				c0.54,1.14,0.38,2.54-0.41,3.83c-0.98,1.58-0.57,3.89,0.91,5.04c1.2,0.93,1.83,2.19,1.73,3.45c-0.11,1.26-0.94,2.4-2.28,3.12
				c-1.65,0.88-2.45,3.09-1.75,4.82c0.57,1.4,0.5,2.75-0.21,3.8c-0.73,1.08-2,1.66-3.57,1.61l-0.1,0c-1.87,0-3.6,1.48-3.85,3.31
				c-0.3,2.14-1.72,3.53-3.61,3.53c-0.78,0-1.6-0.25-2.38-0.73c-0.57-0.35-1.26-0.54-1.98-0.54c-1.24,0-2.41,0.54-3.12,1.44
				C34.34,47.62,33.2,48.24,32.03,48.24z M25.11,41.83c2.24,0,4.35,1.22,5.38,3.11c0.41,0.75,0.95,1.17,1.54,1.17
				c0.51,0,1.05-0.32,1.51-0.91c1.11-1.41,2.9-2.26,4.79-2.26c1.11,0,2.18,0.29,3.09,0.85c0.44,0.27,0.88,0.41,1.27,0.41
				c1.14,0,1.43-1.19,1.5-1.7c0.42-2.93,3.14-5.22,6.12-5.14l0.11,0c0.76,0,1.35-0.24,1.64-0.67c0.3-0.44,0.3-1.08,0-1.81
				c-1.11-2.74,0.11-6.1,2.72-7.5c0.71-0.38,1.12-0.88,1.17-1.42c0.05-0.54-0.28-1.1-0.91-1.59c-2.34-1.81-2.97-5.33-1.42-7.84
				c0.42-0.67,0.52-1.31,0.3-1.8c-0.23-0.49-0.8-0.82-1.6-0.94c-2.94-0.41-5.26-3.14-5.17-6.09C47.17,7.05,47,6.5,46.67,6.16
				c-0.44-0.45-1.19-0.51-2.04-0.17c-0.68,0.27-1.4,0.41-2.16,0.41c0,0,0,0,0,0c-2.24,0-4.35-1.22-5.38-3.11
				c-0.41-0.75-0.95-1.16-1.54-1.16c-0.51,0-1.05,0.32-1.51,0.91c-1.11,1.41-2.9,2.26-4.79,2.26c-1.11,0-2.18-0.29-3.09-0.85
				c-0.44-0.27-0.88-0.41-1.27-0.41c-1.14,0-1.43,1.19-1.5,1.7c-0.42,2.93-3.13,5.22-6.12,5.14l-0.11,0c-0.77,0-1.35,0.24-1.64,0.67
				c-0.3,0.44-0.3,1.08,0,1.81c1.11,2.73-0.11,6.1-2.72,7.5c-0.71,0.38-1.12,0.88-1.17,1.42c-0.04,0.53,0.28,1.1,0.91,1.59
				c2.34,1.82,2.97,5.33,1.42,7.84c-0.42,0.67-0.52,1.31-0.3,1.8c0.23,0.49,0.8,0.82,1.6,0.93c2.94,0.41,5.26,3.14,5.17,6.09
				c-0.02,0.67,0.15,1.22,0.47,1.55c0.44,0.45,1.19,0.51,2.04,0.17C23.63,41.97,24.36,41.83,25.11,41.83z"/>
		</g>
		<g>
			<path class="st0" d="M33.79,41.75c-9.72,0-17.63-7.91-17.63-17.63S24.07,6.48,33.79,6.48s17.63,7.91,17.63,17.63
				S43.52,41.75,33.79,41.75z M33.79,8.61c-8.55,0-15.5,6.95-15.5,15.5c0,8.55,6.95,15.5,15.5,15.5c8.55,0,15.5-6.95,15.5-15.5
				C49.3,15.57,42.34,8.61,33.79,8.61z"/>
		</g>
		<g>
			<path class="st0" d="M52.9,67.94c-0.27,0-0.54-0.1-0.74-0.3c-6.83-6.62-12.43-14.3-16.64-22.83c-0.26-0.53-0.04-1.17,0.48-1.43
				c0.53-0.26,1.17-0.04,1.43,0.48c3.69,7.48,8.48,14.28,14.25,20.27c-0.11-3.02-0.04-6.02,0.21-8.96c0.02-0.28,0.16-0.55,0.38-0.73
				c0.22-0.18,0.5-0.27,0.79-0.24c2.82,0.28,5.64,0.39,8.42,0.32c-4.48-4.67-8.24-9.94-11.22-15.7c-0.27-0.52-0.06-1.17,0.46-1.43
				c0.52-0.27,1.17-0.06,1.43,0.46c3.24,6.28,7.45,11.95,12.52,16.87c0.3,0.29,0.4,0.74,0.26,1.13c-0.15,0.4-0.51,0.67-0.93,0.69
				c-3.3,0.21-6.69,0.16-10.07-0.12c-0.24,3.4-0.23,6.88,0.04,10.36c0.03,0.44-0.21,0.86-0.61,1.04
				C53.21,67.91,53.05,67.94,52.9,67.94z"/>
		</g>
		<g>
			<path class="st0" d="M12.1,71.96c-0.15,0-0.31-0.03-0.45-0.1c-0.4-0.19-0.64-0.6-0.61-1.04c0.26-3.48,0.28-6.96,0.03-10.36
				C7.68,60.74,4.3,60.78,1,60.57c-0.42-0.03-0.79-0.3-0.93-0.69c-0.15-0.4-0.04-0.84,0.26-1.13C7,52.27,12.31,44.27,15.67,35.61
				c0.21-0.55,0.83-0.82,1.38-0.61c0.55,0.21,0.82,0.83,0.61,1.38c-3.18,8.2-8.05,15.82-14.14,22.18c2.78,0.07,5.6-0.04,8.42-0.32
				c0.28-0.03,0.57,0.06,0.79,0.24c0.22,0.18,0.36,0.44,0.38,0.73c0.25,2.94,0.33,5.94,0.21,8.96c5.33-5.54,9.83-11.79,13.41-18.61
				c0.27-0.52,0.92-0.72,1.44-0.45c0.52,0.27,0.72,0.92,0.45,1.44c-4.11,7.85-9.41,14.96-15.77,21.12
				C12.64,71.85,12.37,71.96,12.1,71.96z"/>
		</g>
	</g>
</g>
<g id="svadba" class="st1">
	<g class="st2">
		<g>
			<g>
				<g>
					<path class="st0" d="M14.07,24.23c-5.94,0-10.24-7.83-10.24-13.12c0-5.65,4.59-10.24,10.24-10.24
						c5.65,0,10.24,4.59,10.24,10.24C24.31,16.4,20.01,24.23,14.07,24.23z M14.07,3.04c-4.45,0-8.08,3.62-8.08,8.08
						c0,4.78,3.92,10.95,8.08,10.95c4.16,0,8.08-6.17,8.08-10.95C22.15,6.66,18.53,3.04,14.07,3.04z"/>
				</g>
				<g>
					<path class="st0" d="M7.81,48.33H4c-0.57,0-1.04-0.44-1.08-1L1.54,29.07c-0.03-0.37,0.13-0.72,0.43-0.94
						c0.16-0.12,4.04-2.98,12.1-2.98c8.06,0,11.94,2.86,12.1,2.98c0.23,0.18,0.39,0.44,0.42,0.73l2,15.95
						c0.07,0.59-0.35,1.13-0.94,1.21c-0.59,0.08-1.13-0.35-1.21-0.94l-1.94-15.45c-1.06-0.62-4.48-2.32-10.44-2.32
						c-5.75,0-9.14,1.58-10.32,2.25l1.26,16.61h2.8c0.6,0,1.08,0.48,1.08,1.08C8.89,47.85,8.4,48.33,7.81,48.33z"/>
				</g>
				<g>
					<path class="st0" d="M18.03,69.58h-7.92c-0.55,0-1.02-0.42-1.08-0.96l-2.3-21.25c-0.06-0.59,0.36-1.13,0.96-1.19
						c0.6-0.06,1.13,0.36,1.19,0.96l2.2,20.29h5.98l2.2-20.29c0.06-0.59,0.59-1.02,1.19-0.96c0.59,0.06,1.02,0.6,0.96,1.19
						l-2.3,21.25C19.05,69.17,18.58,69.58,18.03,69.58z"/>
				</g>
			</g>
			<g>
				<g>
					<path class="st0" d="M36.28,24.23c-5.94,0-10.24-7.83-10.24-13.12c0-5.65,4.59-10.24,10.24-10.24
						c5.65,0,10.24,4.59,10.24,10.24C46.52,16.4,42.22,24.23,36.28,24.23z M36.28,3.04c-4.45,0-8.08,3.62-8.08,8.08
						c0,4.78,3.92,10.95,8.08,10.95c4.16,0,8.08-6.17,8.08-10.95C44.36,6.66,40.74,3.04,36.28,3.04z"/>
				</g>
				<g>
					<path class="st0" d="M36.28,61.4c-12.14,0-17.39-3.65-17.6-3.81c-0.49-0.35-0.6-1.02-0.25-1.51c0.35-0.48,1.02-0.6,1.5-0.25
						c0.05,0.04,5,3.41,16.35,3.41c0.18-0.01,0.35,0,0.52,0c0,0,0.01,0,0.01,0c0.59,0,1.08,0.48,1.08,1.07
						c0.01,0.6-0.47,1.09-1.07,1.09C36.65,61.4,36.47,61.4,36.28,61.4z"/>
				</g>
				<g>
					<path class="st0" d="M49.08,44.37c-0.42,0-0.82-0.25-1-0.66l-6.1-14.53c-0.73-0.45-3.03-1.72-5.63-1.72
						c-5.81,0-10.26,2.45-10.3,2.47c-0.52,0.29-1.18,0.11-1.47-0.42c-0.29-0.52-0.11-1.18,0.41-1.47c0.2-0.11,4.96-2.75,11.36-2.75
						c3.86,0,7,2.18,7.13,2.28c0.17,0.12,0.29,0.28,0.37,0.46l6.23,14.83c0.23,0.55-0.03,1.18-0.58,1.42
						C49.36,44.35,49.22,44.37,49.08,44.37z"/>
				</g>
				<g>
					<path class="st0" d="M40.5,61.27c-0.58,0-1.06-0.46-1.08-1.04c-0.02-0.6,0.45-1.1,1.04-1.12c6.66-0.23,10.76-1.38,12.67-2.08
						l-8.86-10.06c-0.39-0.45-0.35-1.13,0.1-1.53c0.45-0.39,1.13-0.35,1.53,0.1l9.85,11.18c0.22,0.25,0.31,0.58,0.25,0.9
						c-0.06,0.32-0.26,0.6-0.55,0.76c-0.19,0.1-4.77,2.53-14.91,2.88C40.52,61.27,40.51,61.27,40.5,61.27z"/>
				</g>
				<g>
					<path class="st0" d="M39.35,70.67h-5.6c-0.54,0-1-0.4-1.07-0.94l-1.24-9.27c-0.08-0.59,0.34-1.14,0.93-1.22
						c0.59-0.08,1.14,0.34,1.21,0.93l1.12,8.34h3.69l0.94-8.44c0.07-0.59,0.6-1.02,1.19-0.95c0.59,0.07,1.02,0.6,0.95,1.19
						l-1.05,9.4C40.36,70.26,39.9,70.67,39.35,70.67z"/>
				</g>
			</g>
		</g>
		<g>
			<path class="st0" d="M14.07,38.26c-0.37,0-0.72-0.19-0.92-0.51l-4.37-7.01c-0.32-0.51-0.16-1.17,0.35-1.49
				c0.51-0.32,1.17-0.16,1.49,0.35l3.37,5.4l4.58-8.78c0.28-0.53,0.93-0.73,1.46-0.46c0.53,0.28,0.74,0.93,0.46,1.46l-5.46,10.45
				c-0.18,0.34-0.53,0.57-0.92,0.58C14.1,38.26,14.09,38.26,14.07,38.26z"/>
		</g>
		<g>
			<path class="st0" d="M49.21,38.53c-0.58,0-1.06-0.46-1.08-1.05l-0.26-7.81c-0.02-0.6,0.45-1.1,1.05-1.12
				c0.59-0.01,1.1,0.45,1.12,1.05l0.26,7.81c0.02,0.6-0.45,1.1-1.04,1.12C49.24,38.53,49.22,38.53,49.21,38.53z"/>
		</g>
		<g>
			<path class="st0" d="M49.08,44.37c-0.27,0-0.54-0.1-0.75-0.3c-0.43-0.41-0.44-1.1-0.03-1.53l10.9-11.36
				c0.41-0.43,1.1-0.44,1.53-0.03c0.43,0.41,0.45,1.1,0.03,1.53l-10.9,11.36C49.65,44.26,49.37,44.37,49.08,44.37z"/>
		</g>
		<g>
			<path class="st0" d="M56.21,34.38c-0.49,0-0.98-0.05-1.45-0.15c-1.91-0.4-3.52-1.56-4.52-3.21c-0.28-0.01-0.55-0.04-0.82-0.1
				c-2.62-0.56-4.3-3.15-3.75-5.77c0.3-1.43,1.25-2.64,2.53-3.31c0.34-2.38,2.39-4.21,4.85-4.21c1.94,0,3.68,1.16,4.47,2.89
				c0.05,0.01,0.09,0.02,0.14,0.03c1.89,0.4,3.49,1.54,4.49,3.16c0.18,0.02,0.36,0.04,0.53,0.08c2.63,0.56,4.31,3.15,3.75,5.77
				c-0.47,2.23-2.47,3.85-4.75,3.85l0,0c-0.34,0-0.68-0.04-1.01-0.11c-0.17-0.04-0.35-0.09-0.52-0.14
				C58.99,33.95,57.61,34.38,56.21,34.38z M50.87,28.84c0.41,0,0.8,0.24,0.98,0.62c0.65,1.38,1.88,2.35,3.36,2.66
				c1.44,0.31,2.96-0.08,4.09-1.01c0.33-0.27,0.79-0.33,1.17-0.14c0.22,0.11,0.43,0.18,0.65,0.23c0.19,0.04,0.38,0.06,0.57,0.06
				c1.26,0,2.37-0.9,2.64-2.14c0.31-1.46-0.62-2.9-2.08-3.2c-0.22-0.04-0.45-0.06-0.68-0.05c-0.42,0.02-0.83-0.22-1.02-0.6
				c-0.66-1.34-1.87-2.28-3.32-2.59c-0.19-0.04-0.39-0.07-0.58-0.09c-0.45-0.04-0.83-0.35-0.95-0.78c-0.33-1.18-1.42-2-2.64-2
				c-1.5,0-2.73,1.22-2.74,2.72c0,0.02,0,0.04,0,0.06c0,0.46-0.3,0.88-0.74,1.03c-0.92,0.31-1.59,1.06-1.79,2
				c-0.31,1.46,0.62,2.89,2.08,3.2c0.29,0.06,0.59,0.07,0.88,0.04C50.79,28.84,50.83,28.84,50.87,28.84z"/>
		</g>
	</g>
</g>
</svg>
