<?xml version="1.0" encoding="utf-8"?>
<!-- Generator: Adobe Illustrator 19.0.0, SVG Export Plug-In . SVG Version: 6.00 Build 0)  -->
<svg version="1.1" xmlns="http://www.w3.org/2000/svg" xmlns:xlink="http://www.w3.org/1999/xlink" x="0px" y="0px"
	 viewBox="0 0 170.55 122.6" style="enable-background:new 0 0 170.55 122.6;" xml:space="preserve">
<style type="text/css">
	.st0{display:none;}
	.st1{display:inline;}
	.st2{fill:#959595;}
</style>
<g id="ca" class="st0">
	<g class="st1">
		<g>
			<path class="st2" d="M145.81,116.22H24.74c-9.65,0-17.5-7.85-17.5-17.5V42.3c0-9.57,7.77-17.81,17.33-18.38l32.44-1.91
				c7.56-0.45,16.66-3.85,19.87-7.43c4.13-4.6,14.44-8.21,23.48-8.21h7.57c8.98,0,19.7,3.54,24.41,8.07
				c3.86,3.71,11.92,7.62,17.61,8.55c7.37,1.2,13.37,9.86,13.37,19.3v56.42C163.31,108.37,155.46,116.22,145.81,116.22z
				 M100.36,11.38c-8.3,0-16.92,3.38-19.75,6.54c-4.09,4.57-14.33,8.55-23.3,9.08l-32.44,1.91c-6.96,0.41-12.62,6.41-12.62,13.38
				v56.42c0,6.89,5.61,12.5,12.5,12.5h121.07c6.89,0,12.5-5.61,12.5-12.5V42.3c0-6.98-4.2-13.56-9.17-14.37
				c-6.75-1.1-15.66-5.44-20.27-9.88c-3.77-3.62-13.36-6.68-20.94-6.68H100.36z"/>
		</g>
		<g>
			<path class="st2" d="M104.99,103.04c-21.66,0-39.28-17.55-39.28-39.12c0-21.57,17.62-39.12,39.28-39.12
				c21.66,0,39.28,17.55,39.28,39.12c0,7.35-2.06,14.5-5.95,20.7c-0.73,1.17-2.28,1.52-3.45,0.79c-1.17-0.73-1.52-2.28-0.79-3.45
				c3.39-5.4,5.18-11.64,5.18-18.04c0-18.81-15.38-34.12-34.28-34.12s-34.28,15.3-34.28,34.12c0,18.81,15.38,34.12,34.28,34.12
				c5.8,0,11.53-1.47,16.56-4.24c1.21-0.66,2.73-0.22,3.4,0.98c0.67,1.21,0.23,2.73-0.98,3.4
				C118.19,101.35,111.63,103.04,104.99,103.04z"/>
		</g>
		<g>
			<path class="st2" d="M82.6,66.42c-1.38,0-2.5-1.12-2.5-2.5c0-13.67,11.16-24.79,24.89-24.79c1.38,0,2.5,1.12,2.5,2.5
				c0,1.38-1.12,2.5-2.5,2.5c-10.96,0-19.89,8.88-19.89,19.79C85.1,65.3,83.98,66.42,82.6,66.42z"/>
		</g>
		<g>
			<path class="st2" d="M53.73,115.79c-1.38,0-2.5-1.12-2.5-2.5V52.78c0-1.38,1.12-2.5,2.5-2.5c1.38,0,2.5,1.12,2.5,2.5v60.52
				C56.23,114.68,55.11,115.79,53.73,115.79z"/>
		</g>
		<g>
			<path class="st2" d="M30.02,28.73c-4.96,0-9.15-3.86-9.53-8.8c-0.2-2.54,0.61-5.01,2.27-6.95c1.66-1.94,3.98-3.11,6.53-3.31
				l24.14-1.88c5.29-0.4,9.88,3.59,10.29,8.77c0.2,2.54-0.61,5.01-2.27,6.95c-1.66,1.94-3.98,3.11-6.53,3.31L30.78,28.7
				C30.53,28.72,30.28,28.73,30.02,28.73z M54.18,12.76c-0.12,0-0.24,0-0.36,0.01l-24.14,1.88c-1.22,0.1-2.33,0.66-3.12,1.58
				c-0.79,0.92-1.17,2.09-1.08,3.3c0.19,2.47,2.39,4.38,4.92,4.18l24.14-1.88c1.22-0.1,2.33-0.66,3.12-1.58
				c0.79-0.92,1.17-2.09,1.08-3.3C58.55,14.6,56.55,12.76,54.18,12.76z"/>
		</g>
	</g>
</g>
<g id="dj" class="st0">
	<g class="st1">
		<g>
			<g>
				<g>
					<path class="st2" d="M63.63,67.66C63.63,67.66,63.63,67.66,63.63,67.66c-1.95,0-3.89-0.52-5.59-1.49
						c-2.6-1.49-4.47-3.91-5.25-6.81c-0.78-2.9-0.39-5.93,1.1-8.53c2-3.48,5.74-5.64,9.75-5.64c1.95,0,3.89,0.52,5.59,1.49
						c5.37,3.08,7.23,9.96,4.15,15.34C71.39,65.5,67.65,67.66,63.63,67.66z M63.65,50.18c-2.23,0-4.31,1.2-5.42,3.13
						c-0.83,1.45-1.05,3.13-0.61,4.73c0.43,1.61,1.47,2.95,2.92,3.78c0.95,0.54,2.02,0.83,3.1,0.83c2.23,0,4.31-1.2,5.42-3.13
						c1.71-2.98,0.68-6.8-2.3-8.51C65.8,50.47,64.73,50.18,63.65,50.18z"/>
				</g>
				<g>
					<path class="st2" d="M63.61,98.7C63.61,98.7,63.61,98.7,63.61,98.7c-7.35,0-14.61-1.94-21.01-5.62
						c-9.79-5.62-16.81-14.72-19.76-25.61c-2.95-10.9-1.48-22.29,4.14-32.08c7.52-13.1,21.58-21.23,36.69-21.23
						c7.34,0,14.6,1.94,21.01,5.62c9.79,5.62,16.81,14.72,19.76,25.62c2.95,10.9,1.48,22.29-4.14,32.08
						C92.78,90.56,78.72,98.7,63.61,98.7z M63.68,19.15c-13.33,0-25.73,7.17-32.36,18.72c-4.96,8.63-6.25,18.68-3.65,28.29
						c2.6,9.61,8.79,17.63,17.42,22.58c5.65,3.24,12.05,4.95,18.52,4.95c0,0,0,0,0,0c13.33,0,25.72-7.17,32.35-18.72
						c4.96-8.63,6.25-18.68,3.65-28.29c-2.6-9.61-8.79-17.63-17.42-22.59C76.55,20.86,70.15,19.15,63.68,19.15z"/>
				</g>
				<g>
					<path class="st2" d="M48.38,85.51c-0.42,0-0.85-0.11-1.24-0.33c-7.68-4.41-13.19-11.54-15.5-20.1
						c-2.31-8.55-1.16-17.49,3.25-25.17c0.69-1.2,2.21-1.61,3.41-0.92c1.2,0.69,1.61,2.21,0.92,3.41
						c-3.74,6.52-4.72,14.11-2.76,21.37c1.97,7.26,6.64,13.32,13.16,17.07c1.2,0.69,1.61,2.21,0.92,3.41
						C50.08,85.06,49.24,85.51,48.38,85.51z"/>
				</g>
			</g>
			<g>
				<g>
					<path class="st2" d="M110.42,93.7c-0.65,0-1.29-0.25-1.78-0.75c-0.97-0.99-0.95-2.57,0.03-3.54
						c7.95-7.81,11.58-13.27,12.88-32.76c1.34-20.04,3.2-44.15,3.22-44.39c0.11-1.38,1.31-2.44,2.68-2.3
						c1.38,0.11,2.41,1.31,2.3,2.68c-0.02,0.24-1.88,24.33-3.21,44.34c-1.41,21.12-5.66,27.46-14.36,36
						C111.68,93.46,111.05,93.7,110.42,93.7z"/>
				</g>
				<g>
					<path class="st2" d="M97.88,107.99c-2.02,0-3.91-0.99-5.06-2.65l-2.36-3.43c-0.93-1.35-1.28-2.98-0.99-4.59
						c0.3-1.61,1.2-3.01,2.55-3.95l9.48-6.54c1.03-0.71,2.23-1.09,3.48-1.09c2.02,0,3.91,0.99,5.05,2.66l2.37,3.43
						c0.93,1.35,1.28,2.98,0.98,4.59c-0.3,1.61-1.2,3.02-2.55,3.95l-9.48,6.54C100.33,107.62,99.13,107.99,97.88,107.99z
						 M104.99,90.75c-0.16,0-0.4,0.04-0.64,0.2l-9.48,6.54c-0.34,0.23-0.44,0.56-0.47,0.73c-0.03,0.17-0.05,0.51,0.18,0.85
						l2.37,3.43c0.21,0.31,0.56,0.49,0.94,0.49c0.16,0,0.4-0.03,0.64-0.2l9.48-6.54c0.34-0.23,0.44-0.56,0.47-0.73
						c0.03-0.17,0.05-0.51-0.18-0.85l-2.37-3.43C105.71,90.93,105.37,90.75,104.99,90.75z"/>
				</g>
				<g>
					<path class="st2" d="M125.54,51.48c-0.38,0-0.76-0.01-1.14-0.04c-4.46-0.3-8.54-2.31-11.48-5.68c-2.94-3.36-4.4-7.67-4.1-12.13
						c0.3-4.46,2.31-8.54,5.68-11.48c3.36-2.94,7.67-4.4,12.13-4.1c1.38,0.09,2.42,1.28,2.33,2.66c-0.09,1.38-1.29,2.41-2.66,2.33
						c-3.12-0.21-6.15,0.81-8.51,2.88c-2.36,2.06-3.77,4.92-3.98,8.05c-0.21,3.13,0.81,6.15,2.88,8.51
						c2.06,2.36,4.92,3.77,8.05,3.98c3.13,0.2,6.15-0.81,8.51-2.88c2.36-2.06,3.77-4.92,3.98-8.05c0.17-2.6-0.49-5.11-1.92-7.26
						c-0.76-1.15-0.45-2.7,0.7-3.47c1.15-0.77,2.7-0.45,3.47,0.7c2.05,3.08,3,6.66,2.75,10.36c-0.3,4.46-2.31,8.54-5.68,11.48
						C133.45,50.03,129.59,51.48,125.54,51.48z"/>
				</g>
			</g>
			<g>
				<path class="st2" d="M147.62,122.6H22.93c-6.41,0-11.62-5.22-11.62-11.63V11.63c0-1.38,1.12-2.5,2.5-2.5s2.5,1.12,2.5,2.5v99.35
					c0,3.65,2.97,6.63,6.62,6.63h124.7c3.65,0,6.62-2.97,6.62-6.63V11.63c0-3.65-2.97-6.63-6.62-6.63H22.93
					c-1.38,0-2.5-1.12-2.5-2.5c0-1.38,1.12-2.5,2.5-2.5h124.7c6.41,0,11.62,5.21,11.62,11.63v99.35
					C159.25,117.38,154.03,122.6,147.62,122.6z"/>
			</g>
			<g>
				<path class="st2" d="M30.85,114.03c-5.59,0-10.14-4.55-10.14-10.14c0-5.59,4.55-10.14,10.14-10.14
					c5.59,0,10.14,4.55,10.14,10.14C40.99,109.47,36.44,114.03,30.85,114.03z M30.85,98.74c-2.84,0-5.14,2.31-5.14,5.14
					s2.31,5.14,5.14,5.14c2.84,0,5.14-2.31,5.14-5.14S33.68,98.74,30.85,98.74z"/>
			</g>
			<g>
				<path class="st2" d="M125.51,111.74c-4.33,0-7.86-3.53-7.86-7.86s3.53-7.86,7.86-7.86c4.34,0,7.86,3.53,7.86,7.86
					S129.85,111.74,125.51,111.74z M125.51,101.02c-1.58,0-2.86,1.28-2.86,2.86c0,1.58,1.28,2.86,2.86,2.86
					c1.58,0,2.86-1.29,2.86-2.86C128.37,102.3,127.09,101.02,125.51,101.02z"/>
			</g>
			<g>
				<path class="st2" d="M142.78,111.89c-1.38,0-2.5-1.12-2.5-2.5V61.3c0-1.38,1.12-2.5,2.5-2.5c1.38,0,2.5,1.12,2.5,2.5v48.09
					C145.28,110.77,144.16,111.89,142.78,111.89z"/>
			</g>
			<g>
				<path class="st2" d="M147.5,94.02h-9.43c-1.38,0-2.5-1.12-2.5-2.5c0-1.38,1.12-2.5,2.5-2.5h9.43c1.38,0,2.5,1.12,2.5,2.5
					C150,92.9,148.88,94.02,147.5,94.02z"/>
			</g>
		</g>
		<g>
			<path class="st2" d="M86.89,108.96c-0.8,0-1.59-0.38-2.07-1.1c-0.78-1.14-0.48-2.7,0.66-3.47l6.64-4.51
				c1.14-0.78,2.7-0.48,3.47,0.66c0.78,1.14,0.48,2.7-0.66,3.47l-6.64,4.51C87.86,108.82,87.37,108.96,86.89,108.96z"/>
		</g>
	</g>
</g>
<g id="video">
	<g>
		<g>
			<path class="st2" d="M113.56,120.54H98.5c-4.67,0-9.82-3.35-11.71-7.63l-1.05-2.39c-1.09-2.48-4.43-4.65-7.13-4.65H60.54
				c-2.88,0-6.87,2.07-8.54,4.42l-2.62,3.71c-2.59,3.67-8.14,6.54-12.63,6.54H25.59c-5.08,0-9.21-4.13-9.21-9.21v-1.25
				c0-2.32-1.89-4.21-4.21-4.21H9.21c-5.08,0-9.21-4.13-9.21-9.21V35.18c0-5.08,4.13-9.21,9.21-9.21h104.35
				c5.08,0,9.21,4.13,9.21,9.21v17.33h5.35l24.01-13.9c0.38-0.22,0.81-0.34,1.25-0.34h14.67c1.38,0,2.5,1.12,2.5,2.5v59.78
				c0,1.38-1.12,2.5-2.5,2.5h-13.81c-0.43,0-0.85-0.11-1.22-0.32l-24.88-13.92h-5.37v22.51
				C122.77,116.4,118.64,120.54,113.56,120.54z M60.54,100.87h18.07c4.68,0,9.82,3.35,11.71,7.63l1.05,2.39
				c1.09,2.48,4.43,4.65,7.13,4.65h15.05c2.32,0,4.21-1.89,4.21-4.21V86.31c0-1.38,1.12-2.5,2.5-2.5h8.52
				c0.43,0,0.85,0.11,1.22,0.32l24.88,13.92h10.66V43.27h-11.5l-24.01,13.9c-0.38,0.22-0.81,0.34-1.25,0.34h-8.52
				c-1.38,0-2.5-1.12-2.5-2.5V35.18c0-2.32-1.89-4.21-4.21-4.21H9.21C6.89,30.97,5,32.86,5,35.18v61.47c0,2.32,1.89,4.21,4.21,4.21
				h2.96c5.08,0,9.21,4.13,9.21,9.21v1.25c0,2.32,1.89,4.21,4.21,4.21h11.17c2.89,0,6.88-2.07,8.54-4.43l2.62-3.7
				C50.5,103.74,56.05,100.87,60.54,100.87z"/>
		</g>
		<g>
			<path class="st2" d="M86.23,28.46c-1.38,0-2.5-1.12-2.5-2.5v-10.7c0-4.52-4.26-8.2-9.5-8.2H37.91c-1.38,0-2.5-1.12-2.5-2.5
				c0-1.38,1.12-2.5,2.5-2.5h36.32c8,0,14.5,5.92,14.5,13.2v10.7C88.73,27.34,87.61,28.46,86.23,28.46z"/>
		</g>
		<g>
			<path class="st2" d="M120.27,71.69c-1.38,0-2.5-1.12-2.5-2.5V52.97c0-1.38,1.12-2.5,2.5-2.5s2.5,1.12,2.5,2.5v16.22
				C122.77,70.57,121.65,71.69,120.27,71.69z"/>
		</g>
		<g>
			<path class="st2" d="M153.7,71.69c-1.38,0-2.5-1.12-2.5-2.5V42.75c0-1.38,1.12-2.5,2.5-2.5c1.38,0,2.5,1.12,2.5,2.5v26.43
				C156.2,70.57,155.08,71.69,153.7,71.69z"/>
		</g>
		<g>
			<path class="st2" d="M36.41,73.26c-8.38,0-15.19-6.81-15.19-15.19c0-8.38,6.81-15.19,15.19-15.19S51.6,49.69,51.6,58.07
				C51.6,66.44,44.78,73.26,36.41,73.26z M36.41,47.88c-5.62,0-10.19,4.57-10.19,10.19c0,5.62,4.57,10.19,10.19,10.19
				S46.6,63.69,46.6,58.07C46.6,52.45,42.03,47.88,36.41,47.88z"/>
		</g>
		<g>
			<path class="st2" d="M85.28,73.26c-8.38,0-15.19-6.81-15.19-15.19c0-8.38,6.81-15.19,15.19-15.19c8.38,0,15.19,6.81,15.19,15.19
				C100.47,66.44,93.65,73.26,85.28,73.26z M85.28,47.88c-5.62,0-10.19,4.57-10.19,10.19c0,5.62,4.57,10.19,10.19,10.19
				c5.62,0,10.19-4.57,10.19-10.19C95.47,52.45,90.9,47.88,85.28,47.88z"/>
		</g>
		<g>
			<path class="st2" d="M85.28,47.88H36.41c-1.38,0-2.5-1.12-2.5-2.5c0-1.38,1.12-2.5,2.5-2.5h48.87c1.38,0,2.5,1.12,2.5,2.5
				C87.78,46.76,86.66,47.88,85.28,47.88z"/>
		</g>
	</g>
</g>
</svg>
