<?xml version="1.0" encoding="utf-8"?>
<!-- Generator: Adobe Illustrator 19.0.0, SVG Export Plug-In . SVG Version: 6.00 Build 0)  -->
<svg version="1.1" xmlns="http://www.w3.org/2000/svg" xmlns:xlink="http://www.w3.org/1999/xlink" x="0px" y="0px"
	 viewBox="0 0 200.46 172.8" style="enable-background:new 0 0 200.46 172.8;" xml:space="preserve">
<style type="text/css">
	.st0{display:none;}
	.st1{display:inline;}
	.st2{fill:#FFFFFF;}
</style>
<g id="udalost" class="st0">
	<g class="st1">
		<g>
			<g>
				<g>
					<path class="st2" d="M127.95,118.85c-0.32,0-0.64-0.08-0.93-0.23l-26.79-14.08l-26.79,14.08c-0.67,0.36-1.49,0.29-2.11-0.15
						c-0.62-0.45-0.92-1.21-0.8-1.96l5.12-29.83L53.98,65.56c-0.54-0.53-0.74-1.33-0.51-2.05c0.23-0.72,0.86-1.25,1.61-1.36
						l29.95-4.35l13.39-27.14c0.34-0.68,1.03-1.11,1.79-1.11c0.76,0,1.46,0.43,1.79,1.11l13.39,27.14l29.95,4.35
						c0.75,0.11,1.38,0.64,1.61,1.36c0.24,0.72,0.04,1.52-0.51,2.05l-21.67,21.13l5.12,29.83c0.13,0.75-0.18,1.51-0.8,1.96
						C128.78,118.72,128.37,118.85,127.95,118.85z M100.23,100.28c0.32,0,0.64,0.08,0.93,0.23l24.13,12.69l-4.61-26.87
						c-0.11-0.65,0.1-1.31,0.58-1.77l19.52-19.03L113.8,61.6c-0.65-0.09-1.21-0.5-1.51-1.09l-12.07-24.45L88.17,60.51
						c-0.29,0.59-0.85,1-1.51,1.09l-26.98,3.92L79.2,84.55c0.47,0.46,0.69,1.12,0.58,1.77l-4.61,26.87l24.13-12.69
						C99.59,100.35,99.91,100.28,100.23,100.28z"/>
				</g>
			</g>
			<g>
				<g>
					<path class="st2" d="M179.51,136.82c-0.43,0-0.86-0.14-1.21-0.41l-17.59-13.39l-21,6.9c-0.72,0.24-1.52,0.04-2.05-0.5
						c-0.53-0.54-0.71-1.34-0.46-2.06l7.3-20.87l-13.05-17.84c-0.45-0.61-0.51-1.43-0.16-2.11c0.35-0.67,1.05-1.1,1.82-1.07
						l22.1,0.49l12.93-17.93c0.45-0.62,1.2-0.93,1.95-0.8c0.75,0.13,1.36,0.67,1.58,1.4l6.36,21.17l21.05,6.76
						c0.72,0.23,1.25,0.86,1.37,1.61c0.11,0.75-0.21,1.5-0.84,1.94l-18.17,12.6l0.07,22.1c0,0.76-0.43,1.46-1.11,1.8
						C180.12,136.75,179.81,136.82,179.51,136.82z M161.08,118.8c0.43,0,0.86,0.14,1.21,0.41l15.2,11.57l-0.06-19.1
						c0-0.66,0.32-1.28,0.86-1.65l15.7-10.88l-18.19-5.84c-0.63-0.2-1.11-0.7-1.3-1.33l-5.5-18.3l-11.18,15.5
						c-0.38,0.53-1,0.86-1.67,0.83l-19.1-0.42l11.28,15.42c0.39,0.53,0.49,1.22,0.27,1.84l-6.31,18.04l18.15-5.96
						C160.66,118.83,160.87,118.8,161.08,118.8z"/>
				</g>
			</g>
			<g>
				<g>
					<path class="st2" d="M20.96,136.82c-0.3,0-0.61-0.07-0.89-0.21c-0.68-0.34-1.11-1.04-1.11-1.8l0.08-22.1l-18.17-12.6
						c-0.63-0.43-0.95-1.19-0.84-1.94c0.11-0.75,0.64-1.38,1.37-1.61l21.05-6.76l6.36-21.17c0.22-0.73,0.83-1.27,1.58-1.4
						c0.75-0.13,1.51,0.18,1.95,0.8l12.93,17.93l22.1-0.49c0.77-0.01,1.47,0.4,1.82,1.07c0.35,0.68,0.29,1.49-0.16,2.11L55.98,106.5
						l7.21,20.61c0.14,0.27,0.22,0.59,0.22,0.92c0,1.1-0.9,2-2,2c-0.01,0-0.01,0-0.02,0c-0.21,0-0.42-0.03-0.62-0.1l-21-6.9
						l-17.59,13.39C21.81,136.68,21.38,136.82,20.96,136.82z M6.47,99.13l15.7,10.88c0.54,0.38,0.86,0.99,0.86,1.65l-0.06,19.1
						l15.2-11.57c0.52-0.4,1.21-0.52,1.84-0.31l18.15,5.96l-6.31-18.04c-0.22-0.62-0.11-1.31,0.27-1.84l11.28-15.42l-19.1,0.42
						c-0.65,0.02-1.28-0.29-1.67-0.83L31.46,73.67l-5.5,18.29c-0.19,0.63-0.68,1.13-1.3,1.33L6.47,99.13z"/>
				</g>
			</g>
		</g>
		<g>
			<g>
				<path class="st2" d="M15.67,88.23L15.67,88.23c-1.1,0-2-0.9-2-2c0-29.67,15.79-57.8,41.21-73.4c0.94-0.58,2.17-0.28,2.75,0.66
					c0.58,0.94,0.28,2.17-0.66,2.75c-24.24,14.88-39.3,41.7-39.3,69.99C17.67,87.34,16.77,88.23,15.67,88.23z"/>
			</g>
		</g>
		<g>
			<g>
				<path class="st2" d="M65.92,11.28c-0.77,0-1.5-0.44-1.83-1.19c-0.45-1.01,0.01-2.19,1.02-2.64c19.61-8.7,42.38-9.84,62.47-3.13
					c1.05,0.35,1.61,1.48,1.26,2.53c-0.35,1.05-1.48,1.61-2.53,1.26c-19.16-6.4-40.88-5.31-59.58,2.99
					C66.47,11.23,66.19,11.28,65.92,11.28z"/>
			</g>
		</g>
		<g>
			<g>
				<path class="st2" d="M165.22,34.25c-0.57,0-1.14-0.24-1.54-0.72c-7.7-9.2-17.55-16.77-28.5-21.87c-1-0.47-1.43-1.66-0.97-2.66
					c0.47-1,1.66-1.43,2.66-0.97c11.47,5.35,21.8,13.28,29.87,22.93c0.71,0.85,0.6,2.11-0.25,2.82
					C166.12,34.1,165.67,34.25,165.22,34.25z"/>
			</g>
		</g>
		<g>
			<g>
				<path class="st2" d="M180.7,62.16c-0.84,0-1.63-0.54-1.9-1.38c-2.26-6.97-5.48-13.64-9.58-19.83c-0.61-0.92-0.36-2.16,0.56-2.77
					c0.92-0.61,2.16-0.36,2.77,0.56c4.3,6.49,7.69,13.49,10.05,20.8c0.34,1.05-0.24,2.18-1.29,2.52
					C181.11,62.13,180.9,62.16,180.7,62.16z"/>
			</g>
		</g>
		<g>
			<g>
				<path class="st2" d="M184.8,88.23c-1.1,0-2-0.9-2-2c0-5.55-0.55-11.1-1.65-16.5c-0.22-1.08,0.48-2.14,1.56-2.36
					c1.08-0.22,2.14,0.48,2.36,1.56c1.15,5.66,1.73,11.48,1.73,17.29C186.8,87.34,185.9,88.23,184.8,88.23z"/>
			</g>
		</g>
		<g>
			<g>
				<path class="st2" d="M100.23,172.8c-27.06,0-52.06-12.3-68.6-33.76c-0.67-0.88-0.51-2.13,0.36-2.8c0.88-0.68,2.13-0.51,2.8,0.36
					c15.78,20.46,39.63,32.2,65.43,32.2c26.17,0,50.22-12,65.99-32.93c0.67-0.88,1.92-1.06,2.8-0.39c0.88,0.66,1.06,1.92,0.39,2.8
					C152.89,160.21,127.67,172.8,100.23,172.8z"/>
			</g>
		</g>
	</g>
</g>
<g id="stuzkova" class="st0">
	<g class="st1">
		<g>
			<path class="st2" d="M98.59,115.83c-3.32,0-6.3-1.99-8.19-5.47c-1.56-2.87-4.94-4.79-8.42-4.79c-1.15,0-2.26,0.21-3.28,0.62
				c-3.98,1.6-7.98,0.96-10.47-1.59c-1.75-1.8-2.67-4.45-2.58-7.44c0.13-4.47-3.54-8.78-8.01-9.41c-3.64-0.51-6.47-2.38-7.76-5.14
				c-1.29-2.74-0.92-6.09,1-9.18c2.36-3.81,1.36-9.35-2.19-12.1c-2.89-2.24-4.4-5.26-4.14-8.29c0.26-3.03,2.25-5.76,5.48-7.49
				c3.97-2.13,5.89-7.42,4.21-11.57c-1.37-3.37-1.19-6.6,0.5-9.12c1.72-2.56,4.83-3.98,8.58-3.87l0.24,0c4.48,0,8.63-3.56,9.26-7.95
				c0.73-5.15,4.13-8.47,8.67-8.47c1.87,0,3.85,0.6,5.71,1.74c1.38,0.84,3.02,1.29,4.75,1.29c2.98,0,5.78-1.3,7.49-3.47
				c2.1-2.67,4.82-4.14,7.65-4.14c3.32,0,6.3,1.99,8.19,5.47c1.56,2.87,4.94,4.8,8.42,4.8h0c1.15,0,2.25-0.21,3.28-0.62
				c3.98-1.6,7.99-0.96,10.47,1.59c1.75,1.8,2.67,4.45,2.58,7.45c-0.13,4.47,3.54,8.78,8.01,9.4c3.64,0.51,6.47,2.38,7.76,5.14
				c1.29,2.74,0.92,6.09-0.99,9.19c-2.36,3.81-1.36,9.35,2.19,12.1c2.89,2.24,4.4,5.26,4.14,8.29c-0.26,3.03-2.25,5.76-5.48,7.49
				c-3.97,2.12-5.89,7.42-4.21,11.57c1.37,3.37,1.19,6.61-0.5,9.12c-1.74,2.59-4.79,3.98-8.58,3.87l-0.24,0
				c-4.48,0-8.63,3.56-9.25,7.95c-0.73,5.15-4.13,8.47-8.67,8.47c-1.87,0-3.85-0.6-5.71-1.74c-1.38-0.84-3.02-1.29-4.74-1.29
				c-2.98,0-5.79,1.3-7.49,3.46C104.14,114.36,101.42,115.83,98.59,115.83z M81.98,100.46c5.38,0,10.44,2.93,12.91,7.47
				c0.98,1.8,2.29,2.8,3.7,2.8c1.23,0,2.52-0.78,3.63-2.19c2.67-3.39,6.97-5.42,11.51-5.42c2.67,0,5.23,0.71,7.41,2.04
				c1.06,0.65,2.11,0.99,3.04,0.99c2.74,0,3.44-2.85,3.61-4.08c1-7.04,7.54-12.53,14.7-12.34l0.26,0c1.84,0,3.23-0.58,3.94-1.62
				c0.71-1.06,0.71-2.6,0.01-4.34c-2.67-6.57,0.26-14.64,6.53-18c1.7-0.91,2.69-2.12,2.8-3.41c0.11-1.29-0.67-2.64-2.18-3.82
				c-5.62-4.36-7.14-12.81-3.4-18.84c1-1.62,1.26-3.15,0.71-4.32c-0.55-1.18-1.92-1.98-3.84-2.25c-7.05-0.98-12.62-7.54-12.41-14.61
				c0.05-1.61-0.36-2.93-1.14-3.74c-1.05-1.08-2.85-1.23-4.9-0.41c-1.63,0.65-3.37,0.98-5.18,0.98c0,0,0,0,0,0
				c-5.38,0-10.45-2.93-12.91-7.47c-0.98-1.8-2.29-2.79-3.7-2.79c-1.23,0-2.52,0.78-3.63,2.18c-2.67,3.39-6.97,5.42-11.51,5.42
				c-2.67,0-5.23-0.71-7.42-2.04c-1.06-0.65-2.11-0.99-3.04-0.99c-2.74,0-3.44,2.85-3.61,4.08c-1,7.05-7.52,12.54-14.7,12.34
				l-0.25,0c-1.84,0-3.24,0.58-3.94,1.62c-0.71,1.06-0.71,2.6,0,4.34c2.67,6.57-0.26,14.64-6.53,18c-1.7,0.91-2.69,2.12-2.8,3.41
				c-0.11,1.28,0.67,2.64,2.18,3.82c5.62,4.36,7.14,12.81,3.4,18.84c-1,1.62-1.26,3.15-0.71,4.32c0.55,1.18,1.92,1.98,3.84,2.24
				c7.05,0.99,12.62,7.54,12.41,14.62c-0.05,1.6,0.36,2.93,1.14,3.73c1.06,1.09,2.86,1.23,4.9,0.41
				C78.43,100.79,80.17,100.46,81.98,100.46z"/>
		</g>
		<g>
			<path class="st2" d="M102.84,100.26c-23.35,0-42.34-19-42.34-42.34s19-42.34,42.34-42.34s42.34,19,42.34,42.34
				S126.18,100.26,102.84,100.26z M102.84,20.68c-20.53,0-37.23,16.7-37.23,37.23c0,20.53,16.7,37.23,37.23,37.23
				c20.53,0,37.23-16.7,37.23-37.23C140.07,37.39,123.36,20.68,102.84,20.68z"/>
		</g>
		<g>
			<path class="st2" d="M148.72,163.16c-0.65,0-1.29-0.25-1.78-0.72c-16.4-15.89-29.84-34.34-39.96-54.81
				c-0.63-1.27-0.11-2.8,1.16-3.42c1.27-0.62,2.8-0.11,3.42,1.16c8.87,17.95,20.37,34.3,34.22,48.68
				c-0.27-7.24-0.11-14.45,0.51-21.51c0.06-0.68,0.39-1.31,0.92-1.75c0.53-0.44,1.21-0.65,1.89-0.58
				c6.77,0.68,13.55,0.94,20.23,0.77c-10.75-11.2-19.8-23.86-26.94-37.69c-0.65-1.26-0.15-2.8,1.1-3.44c1.25-0.65,2.8-0.16,3.44,1.1
				c7.78,15.07,17.89,28.7,30.07,40.5c0.73,0.7,0.97,1.77,0.62,2.72c-0.35,0.95-1.23,1.6-2.24,1.67c-7.93,0.49-16.06,0.39-24.19-0.3
				c-0.58,8.17-0.55,16.53,0.08,24.88c0.08,1.06-0.5,2.06-1.46,2.51C149.46,163.08,149.09,163.16,148.72,163.16z"/>
		</g>
		<g>
			<path class="st2" d="M50.74,172.8c-0.37,0-0.74-0.08-1.08-0.24c-0.96-0.45-1.55-1.45-1.46-2.51c0.63-8.36,0.66-16.71,0.08-24.88
				c-8.14,0.69-16.27,0.79-24.19,0.3c-1.01-0.06-1.89-0.72-2.24-1.67c-0.35-0.95-0.11-2.02,0.62-2.72
				c16.03-15.55,28.78-34.76,36.86-55.57c0.51-1.32,1.99-1.97,3.31-1.46c1.32,0.51,1.97,1.99,1.46,3.31
				c-7.65,19.68-19.33,37.98-33.96,53.26c6.66,0.17,13.45-0.09,20.23-0.77c0.68-0.07,1.36,0.14,1.89,0.58
				c0.53,0.44,0.86,1.07,0.92,1.75c0.61,7.06,0.78,14.27,0.51,21.51c12.8-13.3,23.62-28.3,32.19-44.69c0.66-1.25,2.2-1.73,3.45-1.08
				c1.25,0.66,1.73,2.2,1.08,3.45c-9.86,18.85-22.6,35.91-37.88,50.72C52.03,172.55,51.39,172.8,50.74,172.8z"/>
		</g>
	</g>
</g>
<g id="svadba">
	<g>
		<g>
			<g>
				<g>
					<path class="st2" d="M51.95,57.69c-14.67,0-25.29-19.35-25.29-32.4C26.66,11.35,38,0,51.95,0c13.94,0,25.29,11.35,25.29,25.3
						C77.24,38.34,66.62,57.69,51.95,57.69z M51.95,5.34C40.95,5.34,32,14.29,32,25.3c0,11.81,9.67,27.05,19.95,27.05
						c10.27,0,19.95-15.24,19.95-27.05C71.9,14.29,62.95,5.34,51.95,5.34z"/>
				</g>
				<g>
					<path class="st2" d="M36.48,117.2h-9.39c-1.4,0-2.56-1.08-2.66-2.47l-3.41-45.09c-0.07-0.91,0.33-1.78,1.05-2.33
						c0.4-0.3,9.98-7.37,29.89-7.37c19.9,0,29.49,7.07,29.88,7.37c0.58,0.43,0.95,1.08,1.04,1.8l4.95,39.4
						c0.18,1.46-0.85,2.8-2.32,2.98c-1.46,0.19-2.8-0.86-2.98-2.32L77.73,71c-2.62-1.54-11.08-5.73-25.78-5.73
						c-14.19,0-22.57,3.9-25.49,5.56l3.11,41.02h6.91c1.48,0,2.67,1.2,2.67,2.67C39.15,116.01,37.95,117.2,36.48,117.2z"/>
				</g>
				<g>
					<path class="st2" d="M61.73,169.69H42.17c-1.36,0-2.51-1.03-2.66-2.38l-5.69-52.49c-0.16-1.47,0.9-2.79,2.37-2.94
						c1.47-0.16,2.78,0.9,2.94,2.37l5.43,50.11h14.77l5.43-50.11c0.16-1.47,1.46-2.52,2.94-2.37c1.46,0.16,2.52,1.48,2.37,2.94
						l-5.69,52.49C64.24,168.67,63.09,169.69,61.73,169.69z"/>
				</g>
			</g>
			<g>
				<g>
					<path class="st2" d="M106.81,57.69c-14.67,0-25.29-19.35-25.29-32.4C81.52,11.35,92.86,0,106.81,0
						c13.94,0,25.29,11.35,25.29,25.3C132.1,38.34,121.48,57.69,106.81,57.69z M106.81,5.34c-11,0-19.95,8.95-19.95,19.95
						c0,11.81,9.67,27.05,19.95,27.05c10.27,0,19.95-15.24,19.95-27.05C126.76,14.29,117.81,5.34,106.81,5.34z"/>
				</g>
				<g>
					<path class="st2" d="M106.81,149.48c-29.98,0-42.94-9.03-43.48-9.41c-1.2-0.86-1.48-2.53-0.62-3.73
						c0.86-1.2,2.52-1.48,3.72-0.62c0.14,0.09,12.34,8.42,40.38,8.42c0.44-0.03,0.87,0,1.29,0c0.01,0,0.02,0,0.03,0
						c1.46,0,2.66,1.18,2.67,2.64c0.01,1.48-1.17,2.68-2.65,2.7C107.71,149.48,107.26,149.48,106.81,149.48z"/>
				</g>
				<g>
					<path class="st2" d="M138.42,107.43c-1.04,0-2.03-0.62-2.46-1.64l-15.07-35.87c-1.81-1.12-7.48-4.25-13.92-4.25
						c-14.34,0-25.33,6.04-25.44,6.1c-1.29,0.72-2.91,0.26-3.63-1.03c-0.72-1.29-0.27-2.91,1.02-3.63
						c0.49-0.28,12.26-6.79,28.05-6.79c9.54,0,17.28,5.39,17.6,5.62c0.41,0.29,0.73,0.69,0.92,1.15l15.39,36.63
						c0.57,1.36-0.07,2.93-1.43,3.5C139.12,107.36,138.76,107.43,138.42,107.43z"/>
				</g>
				<g>
					<path class="st2" d="M117.21,149.18c-1.43,0-2.62-1.14-2.67-2.58c-0.05-1.47,1.1-2.71,2.57-2.76
						c16.45-0.57,26.57-3.41,31.29-5.14l-21.89-24.84c-0.97-1.11-0.87-2.79,0.24-3.77c1.11-0.97,2.8-0.87,3.77,0.24l24.34,27.62
						c0.54,0.61,0.77,1.43,0.63,2.23c-0.14,0.8-0.64,1.49-1.36,1.88c-0.47,0.25-11.78,6.24-36.83,7.11
						C117.28,149.18,117.24,149.18,117.21,149.18z"/>
				</g>
				<g>
					<path class="st2" d="M114.38,172.39h-13.84c-1.34,0-2.47-0.99-2.65-2.32l-3.07-22.91c-0.2-1.46,0.83-2.81,2.29-3
						c1.46-0.2,2.8,0.83,3,2.29l2.76,20.59h9.11l2.32-20.84c0.16-1.46,1.48-2.52,2.95-2.36c1.46,0.16,2.52,1.48,2.36,2.95
						l-2.59,23.22C116.88,171.37,115.74,172.39,114.38,172.39z"/>
				</g>
			</g>
		</g>
		<g>
			<path class="st2" d="M51.95,92.34c-0.92,0-1.78-0.47-2.27-1.26L38.89,73.77c-0.78-1.25-0.4-2.9,0.86-3.68
				c1.25-0.78,2.9-0.4,3.68,0.86l8.31,13.34l11.31-21.67c0.68-1.31,2.3-1.81,3.6-1.13c1.31,0.68,1.82,2.3,1.13,3.6L54.32,90.91
				c-0.44,0.85-1.31,1.4-2.27,1.43C52.02,92.34,51.98,92.34,51.95,92.34z"/>
		</g>
		<g>
			<path class="st2" d="M138.74,93.01c-1.43,0-2.62-1.14-2.67-2.58l-0.65-19.29c-0.05-1.48,1.11-2.71,2.58-2.76
				c1.45-0.03,2.71,1.11,2.76,2.58l0.65,19.29c0.05,1.47-1.11,2.71-2.58,2.76C138.8,93.01,138.77,93.01,138.74,93.01z"/>
		</g>
		<g>
			<path class="st2" d="M138.42,107.43c-0.67,0-1.33-0.25-1.85-0.74c-1.06-1.02-1.1-2.71-0.08-3.78l26.93-28.06
				c1.02-1.06,2.71-1.1,3.78-0.08c1.06,1.02,1.1,2.71,0.08,3.78l-26.93,28.06C139.82,107.16,139.12,107.43,138.42,107.43z"/>
		</g>
		<g>
			<path class="st2" d="M156.03,82.76c-1.2,0-2.41-0.13-3.59-0.38c-4.71-1-8.69-3.85-11.15-7.92c-0.69-0.03-1.37-0.11-2.04-0.25
				c-6.48-1.38-10.63-7.77-9.25-14.25c0.75-3.53,3.08-6.53,6.25-8.17c0.83-5.87,5.89-10.39,11.99-10.39c4.79,0,9.1,2.86,11.03,7.13
				c0.12,0.02,0.23,0.04,0.35,0.07c4.66,0.99,8.62,3.8,11.09,7.81c0.44,0.04,0.88,0.11,1.31,0.2c6.49,1.38,10.64,7.77,9.26,14.25
				c-1.17,5.51-6.11,9.52-11.74,9.52l0,0c-0.84,0-1.68-0.09-2.51-0.26c-0.43-0.09-0.86-0.21-1.29-0.35
				C162.88,81.7,159.49,82.76,156.03,82.76z M142.84,69.06c1.02,0,1.97,0.59,2.41,1.53c1.61,3.4,4.63,5.79,8.29,6.57
				c3.55,0.76,7.31-0.19,10.1-2.5c0.81-0.68,1.95-0.81,2.89-0.34c0.54,0.27,1.07,0.45,1.6,0.57c0.46,0.1,0.93,0.15,1.4,0.15
				c3.12,0,5.87-2.22,6.52-5.29c0.76-3.6-1.54-7.15-5.14-7.91c-0.53-0.11-1.11-0.16-1.68-0.13c-1.04,0.06-2.04-0.53-2.52-1.48
				c-1.63-3.3-4.62-5.63-8.21-6.39c-0.48-0.1-0.96-0.17-1.43-0.21c-1.11-0.1-2.04-0.87-2.34-1.94c-0.82-2.9-3.5-4.93-6.51-4.93
				c-3.71,0-6.74,3.01-6.77,6.71c0,0.05,0,0.11,0,0.15c0,1.15-0.73,2.17-1.82,2.53c-2.27,0.76-3.93,2.61-4.42,4.94
				c-0.77,3.6,1.54,7.15,5.14,7.91c0.71,0.15,1.45,0.18,2.17,0.09C142.64,69.06,142.74,69.06,142.84,69.06z"/>
		</g>
	</g>
</g>
</svg>
